Coordinates
version=1
nRows=17
nColumns=33
inDegrees=yes

Units are S.I. units (second, meters, Newtons, ...)
Angles are in degrees.

endheader
time	ground_thorax_rot_x	ground_thorax_rot_y	ground_thorax_rot_z	ground_thorax_tx	ground_thorax_ty	ground_thorax_tz	clav_prot_r	clav_elev_r	scapula_abduction_r	scapula_elevation_r	scapula_upward_rot_r	scapula_winging_r	shoulder_elv_r	plane_of_elev_r	axial_rot_r	elbow_flexion_r	pro_sup_r	wrist_flex_r	wrist_dev_r	clav_prot_l	clav_elev_l	scapula_abduction_l	scapula_elevation_l	scapula_upward_rot_l	scapula_winging_l	shoulder_elv_l	plane_of_elev_l	axial_rot_l	elbow_flexion_l	pro_sup_l	wrist_flex_l	wrist_dev_l
      6.23000000	    -39.98875017	     -9.33857978	      8.02486919	   -190.18018459	    836.97554628	    -13.06242591	     10.04632711	    -45.00000000	     32.80046563	    -45.00000000	    -45.00000000	   1702.19952933	  -3532.57478484	     28.67510886	     87.53690572	   1452.38240547	     29.29244904	     18.38172395	      7.82869866	     14.83230184	     38.28806778	    -34.69393943	    -45.00000000	    -45.00000000	    442.03545018	  -2260.15710223	    141.06275838	    157.19928585	    730.06545617	   -325.11715093	      9.02888380	    -22.06233928
      6.24000000	    -40.04706963	     -8.61845320	      7.77727949	   -191.12891045	    838.21379941	    -13.02945847	      8.60613621	    -45.00000000	     31.97235297	    -45.00000000	    -45.00000000	   1702.57064610	  -3532.29226007	     28.66653660	     87.14857546	   1452.57443905	     29.49805080	     18.01505210	      7.57228867	     15.33358527	     38.84421987	    -35.36790163	    -45.00000000	    -45.00000000	    442.39629053	  -2260.20668467	    141.16123727	    156.07191431	    730.37918093	   -325.11554572	      8.71748349	    -22.01344714
      6.25000000	    -39.90866635	     -8.71969945	      7.83769811	   -191.89292924	    839.32648986	    -12.95750032	      9.14375973	    -45.00000000	     32.47456611	    -45.00000000	    -45.00000000	   1702.25201166	  -3532.41229099	     28.83942440	     87.16082065	   1452.47352129	     29.72035286	     18.25073085	      7.71714749	     15.22454162	     38.45721088	    -34.98563692	    -45.00000000	    -45.00000000	    442.27189048	  -2260.20226494	    141.27985261	    155.79021440	    730.28484707	   -325.06135878	      8.72795858	    -22.02244722
      6.26000000	    -39.88686697	     -8.54217117	      7.85437010	   -192.48349384	    840.30861569	    -12.85654849	      9.02858928	    -45.00000000	     32.24772566	    -45.00000000	    -45.00000000	   1702.37222757	  -3532.21376599	     28.81452990	     86.98808432	   1452.67431416	     29.82844865	     17.99455428	      7.51377735	     15.18767595	     38.54980770	    -35.05041339	    -45.00000000	    -45.00000000	    442.45986724	  -2260.17078700	    141.20006561	    155.62549168	    730.36934337	   -325.00006959	      8.56988861	    -21.98350164
      6.27000000	    -39.81072081	     -8.53142121	      7.93678842	   -192.92200003	    841.18239826	    -12.73335335	      9.10016032	    -45.00000000	     32.44405157	    -45.00000000	    -45.00000000	   1702.09441583	  -3532.31047667	     29.01419958	     86.83111754	   1452.65566818	     29.98147138	     18.26762300	      7.64075658	     15.24707996	     38.40043017	    -34.94541568	    -45.00000000	    -45.00000000	    442.39775821	  -2260.11449308	    141.35367474	    155.46319410	    730.48754500	   -324.87334293	      8.55268370	    -22.04299142
      6.28000000	    -39.78885504	     -8.45058820	      7.93702643	   -193.21746025	    841.95709784	    -12.59397145	      9.17273138	    -45.00000000	     32.36915516	    -45.00000000	    -45.00000000	   1702.29637806	  -3532.11387382	     28.89758718	     86.73552997	   1452.75115819	     30.11649261	     17.94770126	      7.44566555	     15.15188589	     38.45076442	    -34.94423789	    -45.00000000	    -45.00000000	    442.56823721	  -2260.12297883	    141.29329794	    155.30214933	    730.54331968	   -324.72622779	      8.38509971	    -21.97810404
      6.29000000	    -39.72984659	     -8.43065898	      8.01704487	   -193.38098869	    842.64941301	    -12.44271455	      9.16229338	    -45.00000000	     32.51106570	    -45.00000000	    -45.00000000	   1701.98573265	  -3532.21828050	     29.15803479	     86.60230064	   1452.69446193	     30.33091477	     18.31615105	      7.61244260	     15.22496774	     38.36646303	    -34.91088092	    -45.00000000	    -45.00000000	    442.48212433	  -2260.05858898	    141.46245349	    155.08865349	    730.64330688	   -324.53021789	      8.38598565	    -22.04306810
      6.30000000	    -39.74627564	     -8.37811385	      7.98130943	   -193.42301403	    843.27761856	    -12.28283264	      9.26191212	    -45.00000000	     32.49924822	    -45.00000000	    -45.00000000	   1702.29260370	  -3532.00453384	     28.97779684	     86.54374621	   1452.85706919	     30.53506555	     17.88580750	      7.33453355	     15.14827515	     38.40933414	    -34.92933010	    -45.00000000	    -45.00000000	    442.69855732	  -2260.07425287	    141.35744535	    154.94398670	    730.67395903	   -324.34382962	      8.17747280	    -21.93517381
      6.31000000	    -39.68779456	     -8.36353354	      8.09861784	   -193.35274079	    843.85762187	    -12.11765420	      9.22993476	    -45.00000000	     32.60665413	    -45.00000000	    -45.00000000	   1701.92650206	  -3532.11582625	     29.25133129	     86.43552491	   1452.74623509	     30.87920022	     18.40173622	      7.58626876	     15.21742309	     38.35546406	    -34.92342454	    -45.00000000	    -45.00000000	    442.55177277	  -2260.00772847	    141.55724757	    154.73171417	    730.77648661	   -324.09534991	      8.21266740	    -22.02499985
      6.32000000	    -39.72761361	     -8.31345623	      8.07061592	   -193.17954360	    844.40775357	    -11.94903950	      9.33177587	    -45.00000000	     32.61000508	    -45.00000000	    -45.00000000	   1702.22187878	  -3531.91837853	     29.07517581	     86.36498582	   1452.93279962	     31.21261861	     17.93373729	      7.25147125	     15.16436311	     38.38601245	    -34.98920202	    -45.00000000	    -45.00000000	    442.77143171	  -2259.97790991	    141.41685251	    154.60947177	    730.79533901	   -323.85621495	      7.98267198	    -21.90048089
      6.33000000	    -39.70561901	     -8.30965727	      8.15163534	   -192.91358668	    844.94082446	    -11.77956341	      9.30000487	    -45.00000000	     32.72180759	    -45.00000000	    -45.00000000	   1701.94301664	  -3531.99220794	     29.34094459	     86.25230438	   1452.89222629	     31.67694456	     18.42863221	      7.45110196	     15.23390750	     38.36567879	    -35.03374626	    -45.00000000	    -45.00000000	    442.68534199	  -2259.90919308	    141.57377114	    154.44086268	    730.90713277	   -323.56127247	      7.99497299	    -21.98108693
      6.34000000	    -39.74030029	     -8.26538213	      8.01303988	   -192.56453973	    845.47277127	    -11.60963609	      9.39809709	    -45.00000000	     32.76634526	    -45.00000000	    -45.00000000	   1702.24797387	  -3531.75648490	     29.23825900	     86.12292723	   1453.08535901	     32.07525877	     17.89793930	      7.02812848	     15.21931466	     38.37912986	    -35.08831086	    -45.00000000	    -45.00000000	    442.91898166	  -2259.96843860	    141.40410638	    154.34328638	    731.00286826	   -323.29182894	      7.75197883	    -21.87471165
      6.35000000	    -39.77674521	     -8.35350639	      8.19715223	   -192.14043467	    846.01913617	    -11.43871575	      9.34820713	    -45.00000000	     32.76905818	    -45.00000000	    -45.00000000	   1701.95236123	  -3531.85379256	     29.47837601	     86.02240749	   1452.95492179	     32.68065303	     18.54516048	      7.37118035	     15.27064793	     38.39451004	    -35.14149942	    -45.00000000	    -45.00000000	    442.72395913	  -2259.82799183	    141.56312796	    154.21207661	    730.99427972	   -322.90139800	      7.80078975	    -21.94670556
      6.36000000	    -39.84563379	     -8.16994258	      8.00316215	   -191.65281590	    846.59019431	    -11.26688456	      9.44845645	    -45.00000000	     32.91689762	    -45.00000000	    -45.00000000	   1702.23296407	  -3531.68340284	     29.37738760	     85.82618326	   1453.26688647	     33.14827602	     17.93217058	      6.79452160	     15.25918344	     38.38339329	    -35.28966816	    -45.00000000	    -45.00000000	    443.03235822	  -2259.82876380	    141.40821840	    154.13458960	    731.10240955	   -322.53672707	      7.53724596	    -21.84373050
      6.37000000	    -39.84422064	     -8.24427063	      8.11334703	   -191.11080146	    847.19820065	    -11.09304038	      9.41259134	    -45.00000000	     32.96937258	    -45.00000000	    -45.00000000	   1701.96467812	  -3531.61867484	     29.74364636	     85.75288428	   1453.25479063	     33.79124084	     18.91804673	      7.37711606	     15.34904934	     38.46780358	    -35.32323841	    -45.00000000	    -45.00000000	    442.91440569	  -2259.72210620	    141.67842462	    154.05145287	    731.32690709	   -322.09946734	      7.60265118	    -22.01151566
      6.38000000	    -39.90625988	     -8.26820867	      8.17010836	   -190.54256472	    847.83291516	    -10.92192465	      9.61700204	    -45.00000000	     33.00960353	    -45.00000000	    -45.00000000	   1702.18178447	  -3531.58659225	     29.56289758	     85.60253495	   1453.40276440	     34.41347421	     18.28073144	      6.88388520	     14.99526246	     38.34894913	    -35.31987100	    -45.00000000	    -45.00000000	    442.82558343	  -2259.68985549	    141.57576945	    154.19917374	    731.27594220	   -321.55693847	      7.35662861	    -21.86838926
      6.39000000	    -39.99743400	     -8.17626872	      7.95551670	   -189.92234580	    848.54227612	    -10.74253809	      9.45321696	    -45.00000000	     33.29363601	    -45.00000000	    -45.00000000	   1702.04248922	  -3531.52623355	     29.82198587	     85.20805832	   1453.44817220	     34.99355925	     18.45782962	      6.66341826	     15.49540187	     38.45256315	    -35.33517755	    -45.00000000	    -45.00000000	    443.23015010	  -2259.46031361	    141.12386959	    154.00940246	    731.35633671	   -321.00777507	      7.33011419	    -21.93883184
